<svg xmlns="http://www.w3.org/2000/svg" width="512" height="512" viewBox="0 0 512 512" version="1.1">
	<path d="M 217.684 57.418 C 212.036 59.478, 208.394 62.823, 205.073 69 C 203.492 71.941, 202.233 72.777, 197.195 74.233 C 190.168 76.265, 183.916 80.738, 178.987 87.259 C 172.642 95.655, 171.744 99.399, 171.261 119.500 C 170.633 145.643, 173.346 156.252, 183.575 167.663 L 187.910 172.500 187.955 154.928 C 188.009 133.800, 188.989 129.916, 196.044 122.860 C 203.896 115.009, 203.968 115, 258.815 115 C 291.478 115, 307.455 115.356, 310.078 116.141 C 315.303 117.707, 320.890 122.547, 323.107 127.429 C 324.705 130.947, 324.965 134.286, 325.023 152 L 325.090 172.500 329.425 167.663 C 339.268 156.683, 341.961 146.670, 341.975 121 C 341.987 100.513, 340.946 92.713, 337.107 84.500 C 331.379 72.247, 322.579 64.089, 309.500 58.907 C 303.569 56.556, 303.030 56.526, 262.500 56.277 C 229.474 56.074, 220.758 56.296, 217.684 57.418 M 180.500 255.635 C 162.325 258.434, 157.425 259.548, 152.315 262.042 C 142.923 266.627, 134.816 276.571, 131.151 288 C 130.534 289.925, 125.705 317.150, 120.420 348.500 C 109.885 410.993, 109.679 413.486, 114.277 422.560 C 117.278 428.483, 124.431 435.389, 130.310 438.042 C 134.479 439.923, 134.175 439.934, 69.777 440.216 L 5.055 440.500 2.827 442.728 C -0.170 445.726, -0.170 451.275, 2.828 454.272 L 5.056 456.500 256.500 456.500 C 506.634 456.500, 507.955 456.490, 509.875 454.500 C 513.179 451.075, 513.482 446.672, 510.640 443.368 L 508.174 440.500 443.337 440.216 C 378.827 439.934, 378.521 439.923, 382.690 438.042 C 388.569 435.389, 395.722 428.483, 398.723 422.560 C 403.326 413.476, 403.120 410.998, 392.571 348.500 C 387.279 317.150, 382.449 289.925, 381.838 288 C 378.225 276.618, 370.081 266.627, 360.685 262.046 C 355.542 259.539, 350.710 258.455, 332 255.608 C 310.497 252.337, 309.392 252.261, 307.062 253.904 C 305.443 255.046, 304.246 257.298, 303.502 260.603 C 301.732 268.461, 298.108 274.894, 292.054 280.923 C 282.641 290.298, 270.805 294.976, 256.500 294.976 C 242.270 294.976, 230.497 290.346, 220.966 281 C 214.887 275.040, 210.151 266.542, 209.277 260.028 C 208.782 256.337, 205.176 251.710, 203.115 252.123 C 202.777 252.191, 192.600 253.771, 180.500 255.635 M 157.020 321.277 C 151.965 323.850, 151.984 323.610, 152.251 381.646 C 152.489 433.297, 152.588 435.888, 154.405 437.896 L 156.310 440 256.500 440 L 356.690 440 358.595 437.895 C 360.420 435.878, 360.500 433.466, 360.500 380.423 L 360.500 325.056 358.222 322.778 L 355.945 320.500 257.722 320.257 C 180.197 320.065, 158.977 320.280, 157.020 321.277 M 0.079 448.583 C 0.127 449.748, 0.364 449.985, 0.683 449.188 C 0.972 448.466, 0.936 447.603, 0.604 447.271 C 0.272 446.939, 0.036 447.529, 0.079 448.583" stroke="none" fill="black" fill-rule="evenodd"/>
</svg>